<?xml version="1.0" encoding="utf-8"?>
<!-- Generator: Adobe Illustrator 22.1.0, SVG Export Plug-In . SVG Version: 6.00 Build 0)  -->
<svg version="1.1" id="Слой_1" xmlns="http://www.w3.org/2000/svg" xmlns:xlink="http://www.w3.org/1999/xlink" x="0px" y="0px"
	 viewBox="0 0 426 426" style="enable-background:new 0 0 426 426;" xml:space="preserve">
<style type="text/css">
	.st0{fill:#C7D2D9;}
	.st1{fill:#92CDEA;}
	.st2{fill:#1B4A5F;}
	.st3{fill:#67A4C0;}
</style>
<g>
	<path class="st0" d="M340.4,89c2.3,2.4,4.8,4.7,6.9,7.2c2.5,2.9,4.9,5.9,7.2,8.9c3.4,4.5,6.8,9.1,9.7,13.9
		c3.6,5.8,6.9,11.9,9.8,18.1c5.1,10.7,9,21.8,11.9,33.3c1.6,6.5,2.8,13.1,3.7,19.7c0.6,4.5,0.9,9,1.2,13.6c0.3,4.5,0.5,8.9,0.3,13.4
		c-0.3,5.7-0.5,11.4-1.2,17.1c-1.1,9.3-2.9,18.4-5.4,27.4c-2,7.4-4.6,14.6-7.6,21.6c-3.3,7.6-7.1,14.8-11.3,21.9
		c-3,5.1-6.3,10-9.9,14.7c-3.7,4.9-7.6,9.7-11.8,14.1c-2,2.1-3.9,4.4-6.1,6.4c-5.1,4.6-10.1,9.3-15.5,13.5
		c-6.5,5-13.2,9.5-20.2,13.7c-5.9,3.5-12.1,6.5-18.4,9.2c-4,1.7-8.1,3.4-12.2,4.8c-7.9,2.7-16,5-24.2,6.5c-5,0.9-10.1,1.5-15.1,2.2
		c-9.5,1.2-19,1-28.5,0.8c-6-0.1-12-1-18-1.9c-6.2-0.9-12.4-2.3-18.4-3.9c-4.9-1.3-9.8-2.9-14.6-4.6c-5.6-2-11.2-4.3-16.5-7
		c-5.4-2.6-10.6-5.5-15.7-8.6c-7.9-4.9-15.3-10.3-22.4-16.3c-2.9-2.5-5.9-4.9-8.3-7.9c0.6-0.6,1.3-0.4,2-0.4c3.6,0.1,5.8-2,6-5.6
		c0.1-0.9-0.1-1.9,0.5-2.7c1.2-0.4,1.8,0.5,2.4,1.1c6.1,5.5,12.4,10.8,19.2,15.5c20.6,14.2,43.3,23.3,68,27.2
		c9.4,1.5,18.9,2.4,28.4,2.1c15-0.6,29.8-2.5,44.2-6.9c8.6-2.6,17-5.7,25-9.7c11.8-5.9,22.9-13,33.1-21.5
		c11-9.3,20.7-19.7,29.1-31.4c8.1-11.4,14.6-23.7,19.5-36.7c4-10.6,6.8-21.5,8.6-32.7c1.9-11.8,2.4-23.7,1.7-35.6
		c-1.6-25.8-8.8-50-21.9-72.4c-6.4-11-14-21-22.7-30.3c-0.6-0.7-1.5-1.3-1.3-2.4c0.7-0.6,1.5-0.3,2.3-0.3c3.7,0.3,6.2-2.1,6.3-5.8
		C340.3,91.1,339.8,90,340.4,89z"/>
	<path class="st1" d="M208.4,424.5c-6.4-0.1-12.7-0.7-19.1-1.3c-11.4-1.1-22.5-3.5-33.5-6.5c-7.7-2.1-15.2-4.7-22.6-7.8
		c-14.4-6-28.1-13.4-40.9-22.4c-7.6-5.3-14.8-11.1-21.6-17.4c-4.2-3.9-8.3-7.8-12.1-11.9c-4.6-4.9-9-10.1-13.1-15.5
		C40.9,336,36.8,330,33,323.8c-5.4-8.6-10-17.6-14.1-27c-3-6.9-5.6-13.9-7.8-21.1c-2.2-7.1-4.1-14.3-5.5-21.5
		c-1.1-5.7-2.1-11.4-2.7-17.2c-0.5-4.6-0.7-9.2-1-13.8c-0.2-3.4-0.3-6.7-0.3-10c0-4.3,3.1-7.7,8.7-6.4c1.8,0.4,3.6,2.6,3.8,4.5
		c0.2,2,0.4,4,0.4,6c0,7.8,0.9,15.6,1.9,23.3c1,7.6,2.6,15.1,4.5,22.5c2.5,9.8,5.8,19.2,9.8,28.5c4.4,10.2,9.6,20,15.7,29.3
		c4,6.2,8.4,12.2,13.2,17.9c5.7,6.9,11.8,13.5,18.3,19.6c3.9,3.7,8,7.1,12.2,10.5c5.9,4.7,12,9,18.4,13c12.4,7.7,25.4,14,39.2,18.9
		c8.7,3.1,17.5,5.5,26.5,7.3c5.7,1.2,11.4,2,17.2,2.7c5.5,0.6,11,0.9,16.5,1c2.2,0.1,4.5,0.2,6.7,0.4c3.1,0.2,5.5,3,5.5,6.2
		c0,3.2-2.6,6.1-5.7,6.3C212.3,424.6,210.3,424.5,208.4,424.5z"/>
	<path class="st2" d="M356.2,74.2c-4.6-4.5-9.3-9-14.2-13.2c-6.9-5.7-14-11.1-21.6-15.9c-5.6-3.6-11.3-6.9-17.3-9.8
		c-14.6-7.3-29.9-12.8-45.9-16.4c-16.4-3.6-33-5.3-49.8-4.7c-13.1,0.4-26.1,2.1-38.9,5.1c-13,3-25.5,7.2-37.6,12.7
		c-13.6,6.2-26.3,13.8-38.1,22.9C86.4,59.8,80.4,65,74.7,70.6c-0.7,0.7-1.4,1.3-2.1,2c-2.2,2.3-6.6,2.3-8.9-0.1
		c-2.4-2.5-2.5-6.6,0-9.1c5.4-5.4,11-10.5,16.9-15.2c7.3-5.9,14.9-11.3,22.9-16.1c10.1-6.1,20.5-11.3,31.5-15.7
		c7.5-3,15.1-5.5,22.9-7.7c9.3-2.6,18.8-4.4,28.4-5.6c12.8-1.7,25.7-1.9,38.5-1.4c8.9,0.4,17.7,1.5,26.4,3
		c11.9,2.1,23.5,5.3,34.9,9.4c8,2.9,15.7,6.3,23.3,10.1c7.7,3.9,15.1,8.3,22.3,13.1c9.5,6.5,18.6,13.6,26.9,21.6
		c2.2,2.1,4.6,4,6.3,6.5c1.4,2.5,1.1,4.9-0.7,7C362.3,74.8,359.6,75.4,356.2,74.2z"/>
	<path class="st3" d="M356.2,74.2c0.8,0,1.6-0.1,2.4,0c4.4,0.6,7.7-4.1,6.5-7.8c-0.1-0.3-0.1-0.6-0.1-0.9c3.2,2.7,5.8,5.9,8.5,9.1
		c6,7,11.6,14.4,16.7,22.2c8.8,13.5,15.9,27.8,21.5,43c4.7,13,8,26.3,10.3,39.8c0.8,4.9,1.2,9.8,1.6,14.8c0.6,7,1,14,0.8,21.1
		c-0.3,12.9-1.6,25.6-4.1,38.3c-2.8,14.3-7.1,28.2-12.7,41.6c-3.6,8.5-7.8,16.8-12.6,24.8c-4.8,8.1-10.1,15.9-16,23.3
		c-5.2,6.5-10.6,12.8-16.6,18.6c-3.2,3.2-7.8,2.6-10.1-1c-1.5-2.4-1.3-5.2,0.6-7.3c2.4-2.6,4.8-5.1,7.2-7.7
		c5.9-6.4,11.3-13.3,16.3-20.4c4-5.8,7.7-11.8,11.1-17.9c6.6-12.1,11.8-24.8,15.8-38c3.4-11.3,5.7-22.9,7.1-34.7
		c1.4-11.4,1.5-22.8,0.9-34.2c-0.8-15.8-3.6-31.2-8.2-46.3c-4.2-14-10-27.3-17.1-40c-5.5-9.7-11.7-18.8-18.8-27.5
		C363.7,82.5,359.9,78.4,356.2,74.2z"/>
	<path class="st3" d="M98.5,331.9c0,1.8,0.4,3.6-0.4,5.4c-1.4,2.8-3.9,4.1-7,3.4c-0.4-0.1-0.8-0.1-1.2-0.1c-3.5-2.8-6.5-6.2-9.5-9.5
		c-7.3-8.2-13.8-17-19.4-26.4c-4.1-6.9-7.8-13.9-10.9-21.3c-4.2-9.9-7.6-20.2-9.9-30.7c-1.8-8.3-3.1-16.6-3.7-25.1
		c-0.5-7.8-0.6-15.7-0.3-23.5c0.5-12.6,2.6-24.9,5.8-37.1c3-11.1,7-21.7,12.1-32c4.1-8.2,8.8-16.1,14.1-23.7
		c6-8.4,12.6-16.3,19.9-23.6c0.6-0.6,1.2-1.1,1.8-1.6c4.3-2.2,9.1,0.5,9.3,5.4c0.1,1,0.1,2.1-0.1,3.1c-1.5,2.9-4.1,5.1-6.3,7.5
		c-12.3,13.1-21.9,27.9-29.2,44.2c-6.3,13.9-10.3,28.4-12.6,43.4c-1.5,10.2-2.2,20.5-1.7,30.8c1.2,22.2,6.2,43.6,16,63.8
		c6.8,14.1,15.5,27,25.9,38.7c1.9,2.2,3.9,4.3,5.9,6.3C97.8,330,98.6,330.7,98.5,331.9z"/>
	<path class="st1" d="M98.5,94.8c0-0.9,0-1.8,0-2.6c0-4.4-3.4-7.1-7.7-6.1c-0.3,0.1-0.6,0-0.9,0c3.4-3.9,7.5-7.2,11.5-10.5
		c6.2-5.1,12.8-9.8,19.7-14c7.4-4.5,15.1-8.6,23.2-12c9.3-3.9,18.8-7.1,28.6-9.3c6.1-1.4,12.3-2.6,18.6-3.3c8.8-1,17.6-1.6,26.5-1.3
		c5.9,0.2,11.8,0.6,17.6,1.3c12.5,1.5,24.8,4.4,36.7,8.5c5.7,1.9,11.2,4.3,16.6,6.8c9.1,4.2,17.7,9.2,25.9,14.9
		c5.4,3.8,10.6,7.9,15.6,12.2c2.5,2.2,4.8,4.7,7.4,6.8c1,0.8,1.7,1.8,2.6,2.8c0.6,1.7,0.8,3.4,0.3,5.1c-1.1,3.4-4.1,5-7.7,4.1
		c-0.4-0.1-0.8-0.1-1.2-0.1c-1.3,0.3-1.9-0.7-2.6-1.4C316,83.5,301,72.9,284.1,64.9c-16.3-7.8-33.5-12.6-51.4-14.7
		c-10.1-1.2-20.1-1.1-30.2-0.7c-12,0.5-23.8,2.8-35.4,6.2c-8.9,2.7-17.6,5.8-25.9,10C126.7,73,113.4,82,101.6,93.3
		C100.8,94.1,100,95.1,98.5,94.8z"/>
	<path class="st2" d="M316.4,313.1c-2.7,3.4-6,6.2-9.3,9c-7.1,6.2-14.8,11.6-23.1,16.3c-12.8,7.2-26.4,12.3-40.9,15.4
		c-13.8,2.9-27.7,3.6-41.7,2.6c-8.7-0.7-17.3-2.3-25.7-4.5c-13-3.5-25.3-8.8-36.8-15.9c-8.9-5.4-17.1-11.7-24.6-19
		c-0.9-0.9-1.9-1.7-2.7-2.7c-1.9-2.6-1.7-5.8,0.3-8.2c1.7-2,4.8-2.6,7.5-1.4c0.8,0.3,1.3,0.9,1.9,1.4c6.8,6.8,14.3,12.8,22.4,17.9
		c8.2,5.2,16.9,9.4,26,12.7c6.4,2.3,13,4.1,19.6,5.3c11.8,2.1,23.8,2.7,35.8,1.7c12.3-1.1,24.1-3.8,35.6-8.2
		c12.5-4.8,23.9-11.5,34.3-19.8c3.6-2.8,7-5.9,10.2-9.1c0.7-0.7,1.4-1.3,2.1-1.9c2.6-1.7,5.8-1.4,8,0.8
		C317.7,307.5,318,310.5,316.4,313.1z"/>
	<path class="st3" d="M316.4,313.1c0.1-1.3,0.7-2.5,0.5-3.8c-0.7-3.9-4.1-6.1-8-5.2c-0.5,0.1-0.9,0.3-1.4,0.4
		c2.2-2.8,4.8-5.4,7.1-8.1c4.9-5.8,9.2-12.1,12.9-18.7c4.4-7.7,8-15.8,10.6-24.3c2.2-7,3.9-14.2,4.9-21.5c0.8-5.9,1.4-11.9,1.4-17.9
		c0-11.8-1.5-23.4-4.5-34.8c-3.9-14.6-10.2-28-18.8-40.4c-4.4-6.4-9.5-12.3-14.9-17.8c-2.1-2.1-2.4-4.8-1.1-7.5
		c1.1-2.2,3.8-3.6,6.4-3.3c1.7,0.2,3,1,4.2,2.2c5.7,5.9,10.9,12.1,15.6,18.7c5.2,7.4,9.7,15.2,13.4,23.5c4.9,11,8.3,22.4,10.5,34.3
		c2.1,11.7,2.3,23.4,1.7,35.1c-0.5,10-2.5,19.8-5.3,29.4c-3.6,12.5-8.9,24.3-15.7,35.4c-5.1,8.2-10.9,15.7-17.5,22.8
		C317.6,312.1,317.2,312.8,316.4,313.1z"/>
	<path class="st2" d="M202.6,217.6c1.3,0,2.1,0,2.9,0c9,0,18.1,0,27.1,0c3.2,0,3.8,0.6,3.8,3.8c0,2.1,0,4.2,0,6.2
		c0,2.5-0.8,3.2-3.3,3.3c-0.5,0-1,0-1.4,0c-16.2,0-32.5,0-48.7,0c-0.7,0-1.4,0.1-2.2,0c-1.7-0.2-2.6-1.1-2.6-2.8c-0.1-2,0-4,0-6
		c0-1.7,0.8-3,2.1-4.2c6.2-5.7,12.3-11.4,18.4-17.1c5-4.7,10.2-9.2,15-14.2c1.6-1.7,2.9-3.6,4-5.7c1.9-4,1.1-9.6-1.8-12.8
		c-0.7-0.8-1.5-1.4-2.5-1.8c-2.7-1.2-5.6-1.4-8.5-0.8c-5,0.9-7.7,4.2-9.2,8.7c-0.2,0.7-0.3,1.4-0.5,2.1c-0.4,2-1.4,3-3.4,3.1
		c-3.3,0.1-6.6,0.1-9.8,0c-1.8,0-2.7-1.1-2.5-3c0.6-7.4,3.7-13.7,9.6-18.3c4.8-3.7,10.2-5.5,16.2-5.8c5.3-0.3,10.5,0.3,15.5,2.3
		c8.9,3.6,13.5,10.3,14.1,19.6c0.4,7-1.9,13-6.8,18c-7.7,8-15.6,15.8-23.6,23.4C203.8,216.2,203.4,216.7,202.6,217.6z"/>
	<path class="st2" d="M117.8,264.8c0.8-1.2,1.6-2.2,2.3-3.1c0.9,0,1.3,0.6,1.7,1c2.5,2.1,5.5,2.4,8.6,2.1c0.8-0.1,1.5-0.4,2.1-1
		c1.7-1.6,1.5-3.7-0.6-4.7c-1.4-0.6-2.8-1-4.3-1.4c-1.8-0.5-3.5-1-5.2-1.8c-2.2-1-3.5-2.7-3.7-5.2c-0.2-2.8,0.7-5.1,3.1-6.6
		c4.1-2.6,8.3-2.3,12.6-0.5c0.9,0.4,1.9,0.9,2.7,1.6c0.6,0.5,0.7,1,0.2,1.6c-0.2,0.2-0.3,0.4-0.5,0.5c-1.4,1.8-1.4,1.8-3.2,0.6
		c-2-1.3-4.3-1.7-6.7-1.5c-0.8,0.1-1.6,0.3-2.2,0.8c-1.6,1-1.6,3.1,0,4.2c1.1,0.8,2.5,1.1,3.8,1.4c2.4,0.5,4.6,1.3,6.8,2.4
		c4.6,2.4,4.2,10.1-0.5,12.5c-3.6,1.8-7.4,1.8-11.2,0.7C120.7,267.5,119.8,266.9,117.8,264.8z"/>
	<path class="st2" d="M223.2,255.5c0-3.8,0-7.5,0-11.3c0-1.2,0.2-1.7,1.6-1.7c4.9,0.1,9.8,0.1,14.6,0c1.3,0,1.7,0.4,1.6,1.7
		c0,0.3,0,0.6,0,1c0.1,1.1-0.3,1.6-1.5,1.6c-2.7-0.1-5.4,0-8.2,0c-3.6,0-3.6,0-3.6,3.7c0,0.4,0,0.8,0,1.2c-0.2,1.3,0.5,1.6,1.6,1.6
		c3.3-0.1,6.6,0,9.8,0c1.2,0,1.6,0.4,1.5,1.5c0,0.4,0,0.8,0,1.2c0.1,1.1-0.4,1.5-1.5,1.5c-3.2-0.1-6.4,0-9.6,0c-1.8,0-1.8,0-1.9,1.8
		c0,2.6,0,5.3,0,7.9c0,1-0.3,1.4-1.3,1.4c-3.9-0.1-3.1,0.3-3.2-2.9C223.2,262.3,223.2,258.9,223.2,255.5z"/>
	<path class="st2" d="M276.6,257.6c0-3.1,0-6.2,0-9.3c0-1.2-0.4-1.6-1.5-1.5c-1.6,0.1-3.2,0-4.8,0c-1.2,0.1-1.5-0.4-1.5-1.5
		c0.1-3.2-0.1-2.6,2.5-2.6c5.4,0,10.7,0,16.1,0c1.7,0,1.7,0,1.7,1.7c0,0.2,0,0.5,0,0.7c0.2,1.2-0.3,1.8-1.6,1.7
		c-1.3-0.1-2.6,0-3.8,0c-2.5,0-2.4-0.2-2.4,2.3c0,5.5,0,11,0,16.5c0,0.5,0,1,0,1.4c0.1,1.1-0.2,1.6-1.4,1.6
		c-4.1-0.1-3.2,0.3-3.3-3.1C276.6,262.9,276.6,260.2,276.6,257.6z"/>
	<path class="st3" d="M169.8,194.9c-1.6-1.8-3.5-3-5.4-4.4c0.2-0.3,0.2-0.4,0.3-0.4c0.3-0.2,0.7-0.4,1-0.7c3.5-2.6,6.2-5.8,7.1-10.1
		c0.6-2.8,0.6-5.7,0.2-8.6c-1-5.7-3.8-10.3-8.8-13.3c-4.5-2.8-9.5-3.6-14.7-3.6c-11-0.1-22.1,0-33.1,0c-2.7,0-3.4,0.7-3.5,3.4
		c0,0.4,0,0.8,0,1.2c0,22.7,0,45.4,0,68.1c0,0.6,0,1.1,0,1.7c0.1,1.7,1,2.6,2.6,2.9c0.6,0.1,1.3,0,1.9,0c9.5,0,19,0,28.5,0
		c3.6,0,7.2-0.2,10.7-0.9c8.2-1.7,14.3-6.1,17-14.2C176.2,208.3,175.4,201.2,169.8,194.9z M130,165.4c6.1,0.2,12.1-0.3,18.2,0.3
		c3.8,0.4,7,1.9,8.3,5.8c1.8,5.2,0,11.1-5.9,13c-1.7,0.5-3.4,0.9-5.2,0.9c-5,0-9.9,0-14.9,0c-2.1,0-2.2,0-2.2-2.1c0-2.6,0-5.3,0-7.9
		c0-2.7,0-5.4,0-8.2C128.4,166,128.7,165.4,130,165.4z M154.9,216.5c-2.1,1.7-4.5,2.4-7.1,2.5c-5.9,0.1-11.8,0.1-17.7,0.1
		c-1.6,0-1.7-0.1-1.7-1.8c0-3.1,0-6.2,0-9.3s0-6.2,0-9.3c0-1.2,0.5-1.7,1.7-1.7c6.1,0.1,12.1-0.1,18.2,0.1c4.6,0.1,8.5,3,9.8,7.1
		C159.4,208.6,158.7,213.5,154.9,216.5z"/>
	<path class="st3" d="M299.3,194.3c-1.5-1.5-3.3-2.5-4.8-3.8c0.1-0.6,0.5-0.7,0.8-0.9c3.6-2.4,6.1-5.5,7.3-9.8
		c0.8-2.8,0.7-5.6,0.4-8.3c-0.7-6-3.5-10.8-8.8-14.1c-4.5-2.7-9.4-3.6-14.4-3.7c-11.2-0.1-22.4-0.1-33.6,0c-2.6,0-3.2,0.7-3.2,3.3
		c0,0.3,0,0.6,0,1c0,22.9,0,45.7,0,68.6c0,0.6,0,1.1,0,1.7c0.1,1.4,0.9,2.4,2.3,2.6c0.7,0.1,1.4,0.1,2.2,0.1c7.7,0,15.4,0,23,0
		c4.3,0,8.6,0.2,12.9-0.3c4.6-0.5,9-1.8,12.7-4.5c5.1-3.7,8-8.8,8.7-15.1C305.4,204.6,303.9,199,299.3,194.3z M259.8,165.4
		c6.3,0.1,12.6-0.4,18.9,0.4c4.5,0.6,7.4,2.9,8.2,6.9c1.2,5.5-1.3,10.6-7,12.1c-1.3,0.3-2.6,0.6-4,0.6c-5.3,0-10.5,0-15.8,0
		c-1.7,0-1.7-0.1-1.7-1.8c0-2.7,0-5.4,0-8.1c0-2.8,0-5.6,0-8.4C258.4,166.1,258.6,165.4,259.8,165.4z M284.1,217.1
		c-1.9,1.4-4.1,1.9-6.3,1.9c-5.9,0.1-11.8,0-17.8,0.1c-1.2,0-1.7-0.4-1.7-1.7c0.1-3.1,0-6.2,0-9.4c0-3.2,0-6.4,0-9.6
		c0-1.1,0.4-1.6,1.5-1.6c6.2,0,12.3-0.1,18.5,0.1c5,0.2,8.6,3.2,9.9,7.9C289.6,209.5,288,214.3,284.1,217.1z"/>
	<path class="st2" d="M180.4,242.2c-7.7-0.1-13.5,5.4-13.6,13c-0.2,7.8,5.3,13.7,12.8,13.8c8,0.1,13.5-5.2,13.7-13.1
		C193.5,248.1,188,242.3,180.4,242.2z M180,264.8c-4.9,0.3-8.4-3.8-8.4-9.2c0-5.5,3.4-9.2,8.5-9.2c5.1,0,8.8,4,8.6,9.4
		C188.5,260.4,185.7,265.1,180,264.8z"/>
</g>
</svg>
